# AST/ASF file generated using VICON BodyLanguage
# -----------------------------------------------
:version 1.10
:name VICON
:units
  mass 1.0
  length 0.45
  angle deg
:documentation
   .ast/.asf automatically generated from VICON data using
   VICON BodyBuilder and BodyLanguage model FoxedUp or BRILLIANT.MOD
:root
   order TX TY TZ RX RY RZ
   axis XYZ
   position 0 0 0  
   orientation 0 0 0 
:bonedata
  begin
     id 1 
     name lhipjoint
     direction 0.567725 -0.736092 0.368589 
     length 2.42353 
     axis 0 0 0  XYZ
  end
  begin
     id 2 
     name lfemur
     direction 0.34202 -0.939693 0  
     length 7.24894  
     axis 0 0 20  XYZ
    dof rx ry rz
    limits (-160.0 20.0)
           (-70.0 70.0)
           (-60.0 70.0)
  end
  begin
     id 3 
     name ltibia
     direction 0.34202 -0.939693 0   
     length 7.6997   
     axis 0 0 20   XYZ
    dof rx
    limits (-10.0 170.0)
  end
  begin
     id 4 
     name lfoot
     direction 0.100767 -0.276854 0.955614   
     length 2.37556   
     axis -90 7.62852e-016 20   XYZ
    dof rx rz
    limits (-45.0 90.0)
           (-70.0 20.0)
  end
  begin
     id 5 
     name ltoes
     direction 1.53592e-011 -4.21894e-011 1   
     length 1.18363   
     axis -90 7.62852e-016 20   XYZ
    dof rx
    limits (-90.0 20.0)
  end
  begin
     id 6 
     name rhipjoint
     direction -0.556459 -0.742938 0.372017   
     length 2.4012  
     axis 0 0 0  XYZ 
  end
  begin
     id 7 
     name rfemur
     direction -0.34202 -0.939693 0   
     length 7.5119   
     axis 0 0 -20   XYZ
    dof rx ry rz
    limits (-160.0 20.0)
           (-70.0 70.0)
           (-70.0 60.0)
  end
  begin
     id 8 
     name rtibia
     direction -0.34202 -0.939693 0   
     length 7.50155   
     axis 0 0 -20   XYZ
    dof rx
    limits (-10.0 170.0)
 end
 begin
     id 9 
     name rfoot
     direction -0.118427 -0.325376 0.938139   
     length 2.32487  
     axis -90 -7.62852e-016 -20   XYZ
    dof rx rz
    limits (-45.0 90.0)
           (-20.0 70.0)
  end
  begin
     id 10 
     name rtoes
     direction -1.53525e-011 -4.21868e-011 1   
     length 1.15233   
     axis -90 -7.62852e-016 -20   XYZ
    dof rx
    limits (-90.0 20.0)
  end
  begin
     id 11 
     name lowerback
     direction 0.0287568 0.999577 -0.00434502   
     length 2.15243   
     axis 0 0 0   XYZ
    dof rx ry rz
    limits (-20.0 45.0)
           (-30.0 30.0)
           (-30.0 30.0)
  end
  begin
     id 12 
     name upperback
     direction 0.0294009 0.99956 0.00404628   
     length 2.15427   
     axis 0 0 0   XYZ
    dof rx ry rz
    limits (-20.0 45.0)
           (-30.0 30.0)
           (-30.0 30.0)
  end
  begin
     id 13 
     name thorax
     direction 0.0151014 0.999868 0.0059419   
     length 2.14898   
     axis 0 0 0   XYZ
    dof rx ry rz
    limits (-20.0 45.0)
           (-30.0 30.0)
           (-30.0 30.0)
  end
  begin
     id 14 
     name lowerneck
     direction -0.0249197 0.989906 0.139515   
     length 1.6861   
     axis 0 0 0   XYZ
    dof rx ry rz
    limits (-20.0 45.0)
           (-30.0 30.0)
           (-30.0 30.0)
  end
  begin
     id 15 
     name upperneck
     direction 0.0438463 0.988795 -0.142693   
     length 1.71276   
     axis 0 0 0   XYZ
    dof rx ry rz
    limits (-20.0 45.0)
           (-30.0 30.0)
           (-30.0 30.0)
  end
  begin
     id 16
     name head
     direction 0.0148499 0.997845 -0.0639186  
     length 1.7209  
     axis 0 0 0   XYZ
    dof rx ry rz
    limits (-20.0 45.0)
           (-30.0 30.0)
           (-30.0 30.0)
  end
  begin
     id 17 
     name lclavicle
     direction 0.940298 0.323464 -0.105876  
     length 3.9048  
     axis 0 0 0   XYZ
    dof ry rz
    limits (-20.0 10.0)
           (0.0 20.0)
  end
  begin
     id 18 
     name lhumerus
     direction 1 -4.48954e-011 -4.9675e-028   
     length 4.6851   
     axis 180 -30 -90   XYZ
    dof rx ry rz
    limits (-60.0 90.0)
           (-90.0 90.0)
           (-90.0 90.0)
  end
  begin
     id 19
     name lradius
     direction 1 -4.48992e-011 -1.03359e-026   
     length 3.39626   
     axis 180 -30 -90   XYZ
    dof rx
    limits (-10.0 170.0)
  end
  begin
     id 20
     name lwrist
     direction 1 -4.48906e-011 -1.67336e-026   
     length 1.69813   
     axis 9.90442e-015 90 90   XYZ
    dof ry
    limits (-180.0 0.0)
 end
  begin
     id 21 
     name lhand
     direction 1 -4.49006e-011 -3.34673e-026   
     length 0.486078   
     axis 2.1355e-014 90 90   XYZ
    dof rx rz
    limits (-90.0 90.0)
           (-45.0 45.0)
  end
  begin
     id 22 
     name lfingers
     direction 1 -4.48992e-011 -6.69345e-026   
     length 0.391889   
     axis 4.27099e-014 90 90   XYZ
    dof rx
    limits (0.0 90.0)
  end
  begin
     id 23
     name lthumb
     direction 0.707107 -6.34926e-011 0.707107   
     length 0.562676   
     axis -90 45 2.85299e-015   XYZ
    dof rx rz
    limits (-45.0 45.0)
           (-45.0 45.0)
  end
  begin
     id 24 
     name rclavicle
     direction -0.882459 0.414895 -0.221648   
     length 3.44646  
     axis 0 0 0   XYZ 
    dof ry rz
    limits (-10.0 20.0)
           (-20.0 0.0)
  end
  begin
     id 25 
     name rhumerus
     direction -1 -4.48962e-011 -2.37984e-027  
     length 5.55576   
     axis 180 30 90   XYZ
    dof rx ry rz
    limits (-90.0 60.0)
           (-90.0 90.0)
           (-90.0 90.0)
  end
  begin
     id 26 
     name rradius
     direction -1 -4.48982e-011 -6.86791e-027   
     length 3.32774   
     axis 180 30 90   XYZ
    dof rx
    limits (-10.0 170.0)
  end
  begin
     id 27 
     name rwrist
     direction -1 -4.48961e-011 -1.67336e-026   
     length 1.66387   
     axis 9.90442e-015 -90 -90   XYZ
    dof ry
    limits (-180.0 0.0)
  end
  begin
     id 28
     name rhand
     direction -1 -4.4897e-011 -3.34673e-026   
     length 0.507628   
     axis 2.1355e-014 -90 -90   XYZ
    dof rx rz
    limits (-90.0 90.0)
           (-45.0 45.0)
  end
  begin
     id 29
     name rfingers
     direction -1 -4.48854e-011 -6.69345e-026   
     length 0.409263   
     axis 4.27099e-014 -90 -90   XYZ
    dof rx
    limits (0.0 90.0)
  end
  begin
     id 30
     name rthumb
     direction -0.707107 -6.34913e-011 0.707107   
     length 0.587622   
     axis -90 -45 -2.85299e-015   XYZ
    dof rx rz
    limits (-45.0 45.0)
           (-45.0 45.0)
  end
:hierarchy
  begin
    root lhipjoint rhipjoint lowerback
    lhipjoint lfemur
    lfemur ltibia
    ltibia lfoot
    lfoot ltoes
    rhipjoint rfemur
    rfemur rtibia
    rtibia rfoot
    rfoot rtoes
    lowerback upperback
    upperback thorax
    thorax lowerneck lclavicle rclavicle
    lowerneck upperneck
    upperneck head
    lclavicle lhumerus
    lhumerus lradius
    lradius lwrist
    lwrist lhand lthumb
    lhand lfingers
    rclavicle rhumerus
    rhumerus rradius
    rradius rwrist
    rwrist rhand rthumb
    rhand rfingers
  end

#!OML:ASF E:\motion texture\Top Level 1\Subject 1\Session 1\male.ASF
:FULLY-SPECIFIED
:DEGREES
48
root 25.6736 17.7003 6.47535 48.5025 -78.3465 -42.7586
lowerback -1.47526 -2.27362 4.6432
upperback -3.15475 -3.09987 5.41511
thorax -2.36922 -1.65872 3.01149
lowerneck -12.4287 -3.89318 -6.12128
upperneck 10.1262 -4.0778 -0.874043
head 5.19449 -2.30694 0.379167
rclavicle 1.08089e-014 -9.54166e-015
rhumerus -31.2928 -15.6139 -69.0487
rradius 73.7119
rwrist -15.6184
rhand -17.5774 -40.9283
rfingers 7.12502
rthumb 8.67813 -70.7299
lclavicle 1.08089e-014 -9.54166e-015
lhumerus -26.8955 5.25798 87.2924
lradius 61.7384
lwrist 40.3968
lhand -13.9387 44.3388
lfingers 7.12502
lthumb 12.1882 73.9637
rfemur -21.6272 2.59147 31.4629
rtibia 22.8389
rfoot -4.41087 -14.1949
rtoes 18.266
lfemur -9.3906 -3.3806 -8.13809
ltibia 52.9885
lfoot 12.9505 -11.8032
ltoes -9.61277
49
root 25.5149 17.7179 6.46545 48.7287 -78.2628 -43.1544
lowerback -1.49535 -2.15343 4.70071
upperback -3.05887 -2.94635 5.41607
thorax -2.26408 -1.58129 2.97463
lowerneck -12.3763 -4.00299 -6.17913
upperneck 10.2078 -4.22692 -0.803347
head 5.21793 -2.37863 0.397877
rclavicle -2.16986e-014 2.14687e-014
rhumerus -31.8866 -15.9585 -69.0635
rradius 73.9873
rwrist -15.8145
rhand -17.648 -41.0166
rfingers 7.12502
rthumb 8.61004 -70.821
lclavicle -2.16986e-014 2.14687e-014
lhumerus -27.4279 5.20584 87.3382
lradius 62.1634
lwrist 39.9306
lhand -13.8356 44.1278
lfingers 7.12502
lthumb 12.2876 73.7468
rfemur -20.5808 2.73997 31.76
rtibia 22.3517
rfoot -4.77383 -14.3813
rtoes 18.1309
lfemur -10.5132 -3.14777 -7.85892
ltibia 54.6524
lfoot 11.7513 -11.192
ltoes -10.9409
50
root 25.3575 17.736 6.45554 48.9401 -78.2463 -43.5015
lowerback -1.54818 -2.02493 4.69673
upperback -2.9652 -2.78382 5.39898
thorax -2.14048 -1.49765 2.952
lowerneck -12.3339 -4.10919 -6.23848
upperneck 10.2946 -4.37266 -0.712013
head 5.24525 -2.44731 0.423265
rclavicle 1.99592e-014 -1.82882e-014
rhumerus -32.4072 -16.2458 -69.1223
rradius 74.2061
rwrist -16.0076
rhand -17.6902 -41.0933
rfingers 7.12502
rthumb 8.56934 -70.8994
lclavicle 1.99592e-014 -1.82882e-014
lhumerus -27.9545 5.20942 87.3643
lradius 62.6133
lwrist 39.4429
lhand -13.7775 43.9611
lfingers 7.12502
lthumb 12.3436 73.5768
rfemur -19.5607 2.93616 32.0014
rtibia 21.8417
rfoot -5.11114 -14.581
rtoes 18.0091
lfemur -11.6506 -2.86269 -7.64981
ltibia 56.1806
lfoot 10.5271 -10.4967
ltoes -12.012
51
root 25.2015 17.7545 6.44596 49.1823 -78.282 -43.8517
lowerback -1.64518 -1.88907 4.65322
upperback -2.85906 -2.61536 5.369
thorax -1.97792 -1.40964 2.93615
lowerneck -12.3113 -4.21394 -6.30167
upperneck 10.3747 -4.51641 -0.60405
head 5.27435 -2.51375 0.454239
rclavicle 2.80597e-014 -2.38542e-015
rhumerus -32.8299 -16.4764 -69.2326
rradius 74.3652
rwrist -16.1919
rhand -17.7116 -41.1628
rfingers 7.12502
rthumb 8.54868 -70.9698
lclavicle 2.80597e-014 -2.38542e-015
lhumerus -28.4569 5.26697 87.3732
lradius 63.0838
lwrist 38.9649
lhand -13.7246 43.7898
lfingers 7.12502
lthumb 12.3947 73.4023
rfemur -18.5695 3.14697 32.2052
rtibia 21.3246
rfoot -5.43022 -14.7601
rtoes 17.8936
lfemur -12.7947 -2.53348 -7.49546
ltibia 57.5611
lfoot 9.32441 -9.74265
ltoes -12.9195
52
root 25.0474 17.7733 6.4368 49.5168 -78.3556 -44.2751
lowerback -1.72738 -1.74618 4.59777
upperback -2.76698 -2.43503 5.32987
thorax -1.83848 -1.31578 2.91948
lowerneck -12.306 -4.31362 -6.36444
upperneck 10.4673 -4.65244 -0.493672
head 5.31036 -2.57642 0.485984
rclavicle 6.98852e-015 -5.56597e-015
rhumerus -33.1877 -16.6362 -69.3867
rradius 74.465
rwrist -16.3586
rhand -17.7486 -41.2416
rfingers 7.12502
rthumb 8.51299 -71.05
lclavicle 6.98852e-015 -5.56597e-015
lhumerus -28.9783 5.36667 87.3625
lradius 63.5807
lwrist 38.5187
lhand -13.6873 43.6307
lfingers 7.12502
lthumb 12.4306 73.241
rfemur -17.6033 3.35045 32.3911
rtibia 20.8037
rfoot -5.73314 -14.8919
rtoes 17.7919
lfemur -13.9406 -2.16847 -7.37706
ltibia 58.7948
lfoot 8.22913 -8.94278
ltoes -13.5269
53
root 24.895 17.7921 6.42869 49.94 -78.4407 -44.7848
lowerback -1.76598 -1.60508 4.56597
upperback -2.69891 -2.25202 5.28293
thorax -1.74986 -1.22174 2.8848
lowerneck -12.301 -4.4047 -6.43082
upperneck 10.578 -4.77652 -0.382412
head 5.35212 -2.63371 0.519302
rclavicle 5.32991e-015 3.33958e-014
rhumerus -33.5022 -16.7188 -69.58
rradius 74.512
rwrist -16.5026
rhand -17.7685 -41.3144
rfingers 7.12502
rthumb 8.49379 -71.1235
lclavicle 5.32991e-015 3.33958e-014
lhumerus -29.5476 5.50321 87.3233
lradius 64.1082
lwrist 38.1211
lhand -13.6649 43.5041
lfingers 7.12502
lthumb 12.4522 73.1131
rfemur -16.6413 3.52076 32.5751
rtibia 20.2725
rfoot -6.02344 -14.9642
rtoes 17.7086
lfemur -15.0695 -1.79779 -7.27988
ltibia 59.8723
lfoot 7.24443 -8.11788
ltoes -13.8814
54
root 24.7445 17.8105 6.42173 50.4382 -78.5227 -45.371
lowerback -1.79442 -1.46575 4.56143
upperback -2.62997 -2.0708 5.23389
thorax -1.66707 -1.12917 2.83359
lowerneck -12.294 -4.49023 -6.50027
upperneck 10.6753 -4.89276 -0.274328
head 5.38938 -2.68723 0.552921
rclavicle 3.48494e-015 -4.69132e-014
rhumerus -33.7325 -16.748 -69.8152
rradius 74.4963
rwrist -16.6014
rhand -17.7905 -41.387
rfingers 7.12502
rthumb 8.47249 -71.1971
lclavicle 3.48494e-015 -4.69132e-014
lhumerus -30.1207 5.66409 87.2672
lradius 64.6542
lwrist 37.7793
lhand -13.6531 43.407
lfingers 7.12502
lthumb 12.4635 73.0153
rfemur -15.6782 3.64227 32.7633
rtibia 19.7287
rfoot -6.30313 -14.9728
rtoes 17.6412
lfemur -16.1841 -1.43972 -7.19465
ltibia 60.8071
lfoot 6.34626 -7.28309
ltoes -14.008
55
root 24.5956 17.828 6.41602 50.9473 -78.5918 -45.9744
lowerback -1.79496 -1.33441 4.58632
upperback -2.56891 -1.89772 5.18198
thorax -1.60883 -1.04149 2.76451
lowerneck -12.2804 -4.56769 -6.57596
upperneck 10.7691 -4.99775 -0.167415
head 5.42449 -2.73554 0.588261
rclavicle -2.12824e-014 1.82882e-014
rhumerus -33.8956 -16.7197 -70.0852
rradius 74.4252
rwrist -16.6554
rhand -17.8001 -41.4443
rfingers 7.12502
rthumb 8.46325 -71.2547
lclavicle -2.12824e-014 1.82882e-014
lhumerus -30.7112 5.84342 87.1903
lradius 65.2157
lwrist 37.499
lhand -13.636 43.3299
lfingers 7.12502
lthumb 12.4801 72.9373
rfemur -14.7083 3.70439 32.9507
rtibia 19.1696
rfoot -6.57731 -14.9271
rtoes 17.6101
lfemur -17.2786 -1.11894 -7.12358
ltibia 61.6032
lfoot 5.5636 -6.45814
ltoes -13.702
56
root 24.4489 17.844 6.41191 51.5572 -78.6625 -46.6732
lowerback -1.79525 -1.20214 4.64714
upperback -2.50614 -1.72384 5.12388
thorax -1.54983 -0.954014 2.66918
lowerneck -12.2586 -4.63916 -6.65319
upperneck 10.8444 -5.09502 -0.0632166
head 5.45236 -2.78 0.624036
rclavicle 3.91916e-014 -3.18055e-014
rhumerus -33.9866 -16.6332 -70.3955
rradius 74.3123
rwrist -16.6711
rhand -17.8009 -41.4868
rfingers 7.12502
rthumb 8.46247 -71.2973
lclavicle 3.91916e-014 -3.18055e-014
lhumerus -31.2988 6.02856 87.0924
lradius 65.7888
lwrist 37.2669
lhand -13.6174 43.2778
lfingers 7.12502
lthumb 12.498 72.8841
rfemur -13.761 3.71461 33.1346
rtibia 18.6238
rfoot -6.84039 -14.8085
rtoes 17.558
lfemur -18.3647 -0.819322 -7.06964
ltibia 62.2677
lfoot 4.70186 -5.66067
ltoes -13.5144
57
root 24.3044 17.8581 6.40892 52.2451 -78.728 -47.4446
lowerback -1.80888 -1.07162 4.74084
upperback -2.43371 -1.55432 5.05999
thorax -1.47371 -0.868942 2.54918
lowerneck -12.2316 -4.70726 -6.73836
upperneck 10.9007 -5.18807 0.0493667
head 5.47384 -2.82174 0.664377
rclavicle 2.12265e-014 1.74931e-014
rhumerus -34.0044 -16.4856 -70.7495
rradius 74.1713
rwrist -16.6608
rhand -17.7985 -41.5091
rfingers 7.12502
rthumb 8.46476 -71.3195
lclavicle 2.12265e-014 1.74931e-014
lhumerus -31.8642 6.21509 86.9734
lradius 66.3619
lwrist 37.0603
lhand -13.5942 43.246
lfingers 7.12502
lthumb 12.5204 72.8509
rfemur -12.8357 3.67548 33.3172
rtibia 18.0889
rfoot -7.08577 -14.6307
rtoes 17.4574
lfemur -19.4394 -0.54437 -7.02529
ltibia 62.7958
lfoot 3.72952 -4.92549
ltoes -13.3687
